<?xml version="1.0" encoding="UTF-8"?>
<svg id="Layer_2" data-name="Layer 2" xmlns="http://www.w3.org/2000/svg" viewBox="0 0 696.98 148.35">
  <defs>
    <style>
      .cls-1 {
        fill: #fcfffc;
      }

      .cls-1, .cls-2, .cls-3 {
        stroke-width: 0px;
      }

      .cls-2 {
        fill: #72ddf7;
      }

      .cls-3 {
        fill: #fff;
      }
    </style>
  </defs>
  <g id="color">
    <g id="logo">
      <path class="cls-3" d="M139.81,122.77V25.58h25.58v6.99c2.39-3.58,5.97-5.63,9.89-6.99h10.91v27.28h-19.1l-1.71,1.7v68.21h-25.58Z"/>
      <path class="cls-2" d="M238.02,122.77h-34.78c-7.5-2.73-13.3-7.5-13.3-20.46v-56.27c0-12.96,5.8-17.73,13.3-20.46h34.78c7.5,2.73,13.3,7.5,13.3,20.46v56.27c0,12.96-5.8,17.73-13.3,20.46ZM215.51,100.6l1.71,1.7h6.82l1.71-1.7v-52.86l-1.71-1.7h-6.82l-1.71,1.7v52.86Z"/>
      <path class="cls-1" d="M259.83,0h25.58v122.77h-25.58V0Z"/>
      <rect class="cls-1" x="534.16" y="25.58" width="25.58" height="97.19"/>
      <path class="cls-1" d="M629.64,102.31c0,12.96-5.8,17.73-13.3,20.46h-34.78c-7.5-2.73-13.3-7.5-13.3-20.46v-56.27c0-12.96,5.8-17.73,13.3-20.46h34.78c7.5,2.73,13.3,7.5,13.3,20.46v22.17h-25.58v-18.76l-1.71-1.7h-6.82l-1.71,1.7v49.45l1.71,1.71h6.82l1.71-1.71v-21.48h25.58v24.89Z"/>
      <path class="cls-1" d="M637.31,58.15v-12.11c0-12.96,5.8-17.73,13.3-20.46h33.08c7.5,2.73,13.3,7.5,13.3,20.46v12.11h-25.58v-10.4l-1.71-1.7h-5.12l-1.7,1.7v10.57l.51.68,20.63,8.02c11.08,4.26,12.96,8.01,12.96,19.95v15.35c0,12.96-5.8,17.73-13.3,20.46h-33.08c-7.5-2.73-13.3-7.5-13.3-20.46v-14.66h25.58v12.96l1.7,1.7h5.12l1.71-1.7v-13.13l-.51-.68-20.63-8.7c-11.94-4.95-12.96-8.53-12.96-19.95Z"/>
      <path class="cls-1" d="M512,25.58h-15.35l-6.82,6.82v-6.82h-25.58v76.73h-6.81l-1.71-1.7v-56.27c0-10.23-5.97-17.05-13.64-18.76h-18.24l-7.16,7.16c-2.56-3.75-6.14-6.31-10.4-7.16h-15.35l-6.82,6.82v-6.82h-25.58v97.19h25.58V47.74h8.53l1.71,1.7v73.32h25.58V47.74h8.53l1.71,1.7v52.86c0,12.96,5.8,17.73,13.3,20.46h20.79v25.58h25.58v-25.58h23.02c7.67-3.41,12.79-8.53,12.79-18.59v-59.85c0-10.23-5.97-17.05-13.64-18.76ZM489.83,102.31v-56.27h8.53l1.71,1.7v52.86l-1.71,1.7h-8.53Z"/>
      <path class="cls-1" d="M328.32,16.51l-16.08,113.07h-122.3v18.76h128.05c9.45,0,17.49-6.87,18.98-16.2l18.08-113.39h170.6V0h-178.29c-9.57,0-17.68,7.04-19.03,16.51Z"/>
      <polygon class="cls-1" points="315.59 25.58 318.02 51.88 307.94 122.77 305.36 122.77 290.01 25.58 315.59 25.58"/>
      <path class="cls-1" d="M131.29,80.48v-34.44c0-12.96-5.8-17.73-13.3-20.46h-34.78c-7.5,2.73-13.3,7.5-13.3,20.46v16.54h-8.52v-16.54c0-12.96-5.8-17.73-13.3-20.46H14.83c-7.5,2.73-13.3,7.5-13.3,20.46v9.03h25.58v-5.63l1.71-1.7h5.29l1.71,1.7v13.13H13.3c-7.5,2.73-13.3,7.5-13.3,20.46v19.27c0,12.96,5.8,17.73,13.3,20.46h34.78c7.5-2.73,13.3-7.5,13.3-20.46v-21.83h8.52v21.83c0,12.96,5.8,17.73,13.3,20.46h34.78c7.5-2.73,13.3-7.5,13.3-20.46v-14.66h-25.58v12.96l-1.71,1.7h-6.82l-1.71-1.7v-20.12h35.81ZM95.48,47.74l1.71-1.7h6.82l1.71,1.7v14.83h-10.23v-14.83ZM35.81,100.6l-1.71,1.7h-6.82l-1.7-1.7v-18.42l1.7-1.7h8.53v20.12Z"/>
      <rect class="cls-2" x="534.16" width="25.58" height="18.76"/>
      <path class="cls-1" d="M568.26,18.76h109.97c10.36,0,18.76-8.4,18.76-18.76h0s-128.73,0-128.73,0v18.76Z"/>
    </g>
  </g>
</svg>